<svg xmlns="http://www.w3.org/2000/svg" width="64" height="64" viewBox="0 0 64 64">
  <!-- Background -->
  <rect width="64" height="64" rx="14" fill="#0f172a"/>
  
  <!-- Border -->
  <rect x="2" y="2" width="60" height="60" rx="12" fill="none" stroke="#06b6d4" stroke-width="2" opacity="0.6"/>
  
  <!-- Central circle -->
  <circle cx="32" cy="32" r="8" fill="#06b6d4" opacity="0.3"/>
  <circle cx="32" cy="32" r="8" fill="none" stroke="#06b6d4" stroke-width="2"/>
  
  <!-- Connection lines -->
  <line x1="32" y1="24" x2="32" y2="16" stroke="#06b6d4" stroke-width="2" stroke-linecap="round"/>
  <line x1="32" y1="40" x2="32" y2="48" stroke="#06b6d4" stroke-width="2" stroke-linecap="round"/>
  <line x1="24" y1="32" x2="16" y2="32" stroke="#06b6d4" stroke-width="2" stroke-linecap="round"/>
  <line x1="40" y1="32" x2="48" y2="32" stroke="#06b6d4" stroke-width="2" stroke-linecap="round"/>
  
  <!-- Diagonal lines -->
  <line x1="26" y1="26" x2="20" y2="20" stroke="#8b5cf6" stroke-width="2" stroke-linecap="round"/>
  <line x1="38" y1="26" x2="44" y2="20" stroke="#8b5cf6" stroke-width="2" stroke-linecap="round"/>
  <line x1="26" y1="38" x2="20" y2="44" stroke="#ec4899" stroke-width="2" stroke-linecap="round"/>
  <line x1="38" y1="38" x2="44" y2="44" stroke="#ec4899" stroke-width="2" stroke-linecap="round"/>
  
  <!-- Outer nodes -->
  <circle cx="32" cy="16" r="3" fill="#06b6d4"/>
  <circle cx="32" cy="48" r="3" fill="#06b6d4"/>
  <circle cx="16" cy="32" r="3" fill="#06b6d4"/>
  <circle cx="48" cy="32" r="3" fill="#06b6d4"/>
  
  <!-- Diagonal nodes -->
  <circle cx="20" cy="20" r="2.5" fill="#8b5cf6"/>
  <circle cx="44" cy="20" r="2.5" fill="#8b5cf6"/>
  <circle cx="20" cy="44" r="2.5" fill="#ec4899"/>
  <circle cx="44" cy="44" r="2.5" fill="#ec4899"/>
</svg>
